<svg width="32" height="32" viewBox="0 0 32 32" fill="none" xmlns="http://www.w3.org/2000/svg">
<path fill-rule="evenodd" clip-rule="evenodd" d="M13.8685 31.8245C5.10451 30.6207 -1.02396 22.5607 0.180197 13.822C1.38435 5.08327 9.46515 -1.02496 18.2292 0.178857C20.5384 0.49606 22.6647 1.28929 24.5221 2.44553C24.8633 2.65789 24.8386 3.15739 24.5165 3.39779C24.4505 3.44704 24.3851 3.49782 24.3204 3.55013C21.9941 5.43108 21.427 8.57751 23.0539 10.5779C23.7277 11.4063 24.672 11.9083 25.7126 12.0784C26.1092 12.1433 26.3812 12.5707 26.2662 12.9558C25.833 14.4057 26.043 15.9354 26.9787 17.0859C27.9505 18.2808 29.4853 18.7965 31.0595 18.6171C31.4489 18.5728 31.8074 18.8969 31.7273 19.2805C30.0255 27.4259 22.2602 32.9772 13.8685 31.8245Z" fill="#F3525C"/>
</svg>
