<svg width="80" height="80" viewBox="0 0 80 80" fill="none" xmlns="http://www.w3.org/2000/svg">
<path fill-rule="evenodd" clip-rule="evenodd" d="M50.2067 78.0818C29.2234 83.6634 7.68819 71.1779 2.10655 50.1945C-3.47508 29.2112 9.01048 7.67599 29.9938 2.09436C35.8248 0.543309 41.6984 0.387407 47.2604 1.42131C47.8445 1.5299 48.0933 2.22343 47.7635 2.71769C47.4911 3.12605 47.2349 3.55224 46.9969 3.99556C43.519 10.4732 45.2265 18.1549 50.8107 21.153C53.3758 22.5302 56.3127 22.6797 59.0756 21.8108C59.6427 21.6325 60.2533 22.0564 60.2791 22.6503C60.4547 26.6985 62.4259 30.3485 65.8823 32.2043C69.4472 34.1183 73.7303 33.6608 77.2666 31.3943C77.7552 31.0811 78.4298 31.3202 78.5513 31.8876C82.9122 52.2537 70.5551 72.6691 50.2067 78.0818Z" fill="#973054"/>
</svg>
