<svg width="324" height="74" viewBox="0 0 324 74" fill="none" xmlns="http://www.w3.org/2000/svg">
<path d="M187.691 70.2843H174.804V19.2778H155.382V6.51509H207.067V19.2778H187.691V70.2843Z" fill="white"/>
<path d="M264.88 44.8033C264.88 48.3312 264.204 51.6516 262.852 54.7645C261.501 57.8477 259.653 60.5455 257.31 62.8579C254.967 65.1407 252.218 66.9491 249.064 68.2832C245.94 69.6173 242.59 70.2843 239.015 70.2843C235.44 70.2843 232.076 69.6173 228.922 68.2832C225.797 66.9491 223.064 65.1407 220.721 62.8579C218.407 60.5455 216.575 57.8477 215.223 54.7645C213.871 51.6516 213.195 48.3312 213.195 44.8033V6.51509H226.083V44.8033C226.083 46.5524 226.413 48.1978 227.074 49.7394C227.765 51.281 228.696 52.6299 229.868 53.7861C231.04 54.9423 232.406 55.8614 233.968 56.5432C235.561 57.1954 237.243 57.5216 239.015 57.5216C240.788 57.5216 242.455 57.1954 244.017 56.5432C245.609 55.8614 246.991 54.9423 248.163 53.7861C249.334 52.6299 250.25 51.281 250.911 49.7394C251.602 48.1978 251.948 46.5524 251.948 44.8033V6.51509H264.88V44.8033Z" fill="white"/>
<path d="M272.315 25.637C272.315 22.9984 272.826 20.523 273.847 18.2106C274.869 15.8982 276.251 13.8822 277.993 12.1627C279.765 10.4136 281.823 9.03503 284.166 8.02706C286.509 7.01908 289.018 6.51509 291.691 6.51509H321.341V19.2778H291.691C290.79 19.2778 289.949 19.4409 289.168 19.767C288.387 20.0931 287.696 20.5526 287.095 21.1455C286.524 21.7088 286.074 22.3759 285.743 23.1467C285.413 23.9175 285.248 24.7476 285.248 25.637C285.248 26.5264 285.413 27.3713 285.743 28.1717C286.074 28.9425 286.524 29.6244 287.095 30.2173C287.696 30.7806 288.387 31.2253 289.168 31.5514C289.949 31.8775 290.79 32.0406 291.691 32.0406H304.624C307.297 32.0406 309.806 32.5445 312.149 33.5525C314.522 34.5309 316.58 35.8946 318.322 37.6437C320.095 39.3632 321.477 41.394 322.468 43.736C323.489 46.0484 324 48.5239 324 51.1624C324 53.8009 323.489 56.2764 322.468 58.5888C321.477 60.9012 320.095 62.932 318.322 64.6811C316.58 66.4006 314.522 67.7644 312.149 68.7723C309.806 69.7803 307.297 70.2843 304.624 70.2843H275.92V57.5216H304.624C305.525 57.5216 306.366 57.3585 307.147 57.0324C307.928 56.7063 308.604 56.2616 309.175 55.6983C309.776 55.1054 310.241 54.4235 310.572 53.6527C310.902 52.8819 311.068 52.0518 311.068 51.1624C311.068 50.273 310.902 49.4429 310.572 48.6721C310.241 47.9013 309.776 47.2343 309.175 46.671C308.604 46.0781 307.928 45.6186 307.147 45.2925C306.366 44.9664 305.525 44.8033 304.624 44.8033H291.691C289.018 44.8033 286.509 44.2993 284.166 43.2913C281.823 42.2834 279.765 40.9196 277.993 39.2001C276.251 37.451 274.869 35.4202 273.847 33.1078C272.826 30.7658 272.315 28.2755 272.315 25.637Z" fill="white"/>
<path d="M64.5722 70.2843H51.6848V24.7476C51.6848 23.8582 51.5045 23.0281 51.144 22.2573C50.8136 21.4865 50.348 20.8194 49.7472 20.2562C49.1764 19.6632 48.5005 19.2037 47.7194 18.8776C46.9384 18.5515 46.0972 18.3884 45.196 18.3884C44.2948 18.3884 43.4537 18.5515 42.6726 18.8776C41.8916 19.2037 41.2006 19.6632 40.5998 20.2562C40.029 20.8194 39.5784 21.4865 39.248 22.2573C38.9175 23.0281 38.7523 23.8582 38.7523 24.7476V70.2843H25.8199V24.7476C25.8199 23.8582 25.6546 23.0281 25.3242 22.2573C24.9937 21.4865 24.5281 20.8194 23.9273 20.2562C23.3565 19.6632 22.6806 19.2037 21.8996 18.8776C21.1185 18.5515 20.2774 18.3884 19.3762 18.3884C18.4749 18.3884 17.6338 18.5515 16.8528 18.8776C16.0717 19.2037 15.3808 19.6632 14.78 20.2562C14.2092 20.8194 13.7586 21.4865 13.4281 22.2573C13.0977 23.0281 12.9325 23.8582 12.9325 24.7476V70.2843H0V24.7476C0 22.1091 0.495669 19.6336 1.48701 17.3212C2.50839 14.9791 3.89025 12.9483 5.6326 11.2289C7.405 9.47972 9.46277 8.11599 11.8059 7.13767C14.1791 6.12969 16.7025 5.62571 19.3762 5.62571C21.7794 5.62571 24.0925 6.05558 26.3155 6.91532C28.5385 7.74542 30.5362 8.96091 32.3086 10.5618C34.081 8.96091 36.0637 7.74542 38.2566 6.91532C40.4796 6.05558 42.7928 5.62571 45.196 5.62571C47.8696 5.62571 50.378 6.12969 52.7212 7.13767C55.0944 8.11599 57.1522 9.47972 58.8945 11.2289C60.6669 12.9483 62.0488 14.9791 63.0401 17.3212C64.0615 19.6336 64.5722 22.1091 64.5722 24.7476V70.2843Z" fill="white"/>
<path d="M84.0495 63.0307C69.4819 48.5089 69.6013 25.0822 84.3162 10.7057C99.0312 -3.67074 122.769 -3.55289 137.337 10.9689C141.322 14.9417 144.208 19.5808 145.997 24.5187C146.227 25.1534 145.677 25.7904 144.995 25.7562C144.61 25.7368 144.22 25.7322 143.826 25.7429C136.817 25.9342 131.271 30.923 131.438 36.8856C131.513 39.5407 132.707 41.9411 134.629 43.7704C135.12 44.2386 135.046 45.0806 134.476 45.452C131.333 47.4996 129.341 50.752 129.442 54.3613C129.547 58.0912 131.862 61.3187 135.297 63.1659C135.883 63.4809 136.031 64.2797 135.532 64.7162C120.745 77.6455 98.1196 77.0565 84.0495 63.0307Z" fill="white"/>
<path d="M83.4032 63.0307C68.4626 48.5089 68.585 25.0822 83.6767 10.7057C98.7684 -3.67074 123.114 -3.55289 138.055 10.9689C142.142 14.9417 145.102 19.5808 146.937 24.5187C147.173 25.1534 146.609 25.7904 145.909 25.7562C145.514 25.7368 145.114 25.7322 144.71 25.7429C137.522 25.9342 131.834 30.923 132.005 36.8856C132.081 39.5407 133.307 41.9411 135.277 43.7704C135.782 44.2386 135.706 45.0806 135.121 45.452C131.898 47.4996 129.854 50.752 129.958 54.3613C130.065 58.0912 132.44 61.3187 135.963 63.1659C136.564 63.4809 136.716 64.2797 136.203 64.7162C121.038 77.6455 97.8335 77.0565 83.4032 63.0307Z" fill="#4B3EE1"/>
</svg>
