<svg width="133" height="28" viewBox="0 0 133 28" fill="none" xmlns="http://www.w3.org/2000/svg">
<path d="M77.046 26.5942H71.7558V7.29435H63.7835V2.46518H84.9998V7.29435H77.046V26.5942Z" fill="black"/>
<path d="M108.732 16.9527C108.732 18.2876 108.454 19.5439 107.899 20.7218C107.344 21.8884 106.586 22.9092 105.624 23.7842C104.662 24.6479 103.534 25.3322 102.239 25.837C100.957 26.3418 99.5817 26.5942 98.1143 26.5942C96.6469 26.5942 95.2657 26.3418 93.9709 25.837C92.6885 25.3322 91.5663 24.6479 90.6044 23.7842C89.6549 22.9092 88.9027 21.8884 88.3478 20.7218C87.7929 19.5439 87.5154 18.2876 87.5154 16.9527V2.46518H92.8056V16.9527C92.8056 17.6145 92.9412 18.2371 93.2125 18.8204C93.4962 19.4037 93.8784 19.9141 94.3594 20.3516C94.8403 20.7891 95.4014 21.1368 96.0426 21.3948C96.6962 21.6416 97.3867 21.765 98.1143 21.765C98.8419 21.765 99.5263 21.6416 100.167 21.3948C100.821 21.1368 101.388 20.7891 101.869 20.3516C102.35 19.9141 102.726 19.4037 102.998 18.8204C103.281 18.2371 103.423 17.6145 103.423 16.9527V2.46518H108.732V16.9527Z" fill="black"/>
<path d="M111.784 9.70052C111.784 8.70216 111.993 7.76549 112.413 6.89052C112.832 6.01555 113.399 5.25275 114.114 4.60213C114.842 3.94029 115.687 3.41868 116.648 3.03728C117.61 2.65588 118.64 2.46518 119.738 2.46518H131.909V7.29435H119.738C119.368 7.29435 119.022 7.35605 118.702 7.47944C118.381 7.60283 118.097 7.7767 117.851 8.00106C117.617 8.21419 117.432 8.46659 117.296 8.75824C117.16 9.0499 117.092 9.36399 117.092 9.70052C117.092 10.037 117.16 10.3567 117.296 10.6596C117.432 10.9513 117.617 11.2093 117.851 11.4336C118.097 11.6468 118.381 11.815 118.702 11.9384C119.022 12.0618 119.368 12.1235 119.738 12.1235H125.046C126.144 12.1235 127.173 12.3142 128.135 12.6956C129.109 13.0658 129.954 13.5818 130.669 14.2436C131.397 14.8943 131.964 15.6627 132.371 16.5488C132.79 17.4238 133 18.3605 133 19.3589C133 20.3572 132.79 21.2939 132.371 22.1689C131.964 23.0438 131.397 23.8122 130.669 24.4741C129.954 25.1247 129.109 25.6407 128.135 26.0221C127.173 26.4035 126.144 26.5942 125.046 26.5942H113.263V21.765H125.046C125.416 21.765 125.761 21.7033 126.082 21.5799C126.403 21.4565 126.68 21.2883 126.914 21.0751C127.161 20.8508 127.352 20.5928 127.488 20.3011C127.623 20.0095 127.691 19.6954 127.691 19.3589C127.691 19.0223 127.623 18.7082 127.488 18.4166C127.352 18.1249 127.161 17.8725 126.914 17.6594C126.68 17.435 126.403 17.2612 126.082 17.1378C125.761 17.0144 125.416 16.9527 125.046 16.9527H119.738C118.64 16.9527 117.61 16.762 116.648 16.3806C115.687 15.9992 114.842 15.4832 114.114 14.8326C113.399 14.1707 112.832 13.4023 112.413 12.5273C111.993 11.6412 111.784 10.6989 111.784 9.70052Z" fill="black"/>
<path d="M26.5065 26.5942H21.2163V9.36399C21.2163 9.02746 21.1423 8.71337 20.9943 8.42172C20.8587 8.13006 20.6675 7.87766 20.4209 7.66453C20.1866 7.44018 19.9091 7.26631 19.5885 7.14291C19.2679 7.01952 18.9226 6.95782 18.5527 6.95782C18.1827 6.95782 17.8375 7.01952 17.5168 7.14291C17.1962 7.26631 16.9126 7.44018 16.666 7.66453C16.4317 7.87766 16.2467 8.13006 16.1111 8.42172C15.9754 8.71337 15.9076 9.02746 15.9076 9.36399V26.5942H10.5989V9.36399C10.5989 9.02746 10.5311 8.71337 10.3954 8.42172C10.2598 8.13006 10.0686 7.87766 9.82201 7.66453C9.58771 7.44018 9.31025 7.26631 8.98964 7.14291C8.66902 7.01952 8.32374 6.95782 7.95379 6.95782C7.58385 6.95782 7.23857 7.01952 6.91795 7.14291C6.59733 7.26631 6.31371 7.44018 6.06708 7.66453C5.83278 7.87766 5.64781 8.13006 5.51216 8.42172C5.37652 8.71337 5.30869 9.02746 5.30869 9.36399V26.5942H0V9.36399C0 8.36563 0.203469 7.42896 0.610407 6.55399C1.02968 5.6678 1.59692 4.8994 2.31215 4.24878C3.03971 3.58694 3.88441 3.07093 4.84626 2.70075C5.82045 2.31935 6.85629 2.12866 7.95379 2.12866C8.94031 2.12866 9.88983 2.29131 10.8024 2.61662C11.7149 2.93071 12.5349 3.39063 13.2625 3.99638C13.99 3.39063 14.8039 2.93071 15.7041 2.61662C16.6166 2.29131 17.5662 2.12866 18.5527 2.12866C19.6502 2.12866 20.6799 2.31935 21.6417 2.70075C22.6159 3.07093 23.4606 3.58694 24.1758 4.24878C24.9034 4.8994 25.4706 5.6678 25.8776 6.55399C26.2968 7.42896 26.5065 8.36563 26.5065 9.36399V26.5942Z" fill="black"/>
<path d="M34.5018 23.8496C28.5219 18.3548 28.5709 9.49059 34.6113 4.05083C40.6517 -1.38894 50.3961 -1.34434 56.376 4.15043C58.0119 5.65363 59.1966 7.40898 59.9309 9.27741C60.0253 9.51756 59.7997 9.75859 59.5197 9.74562C59.3614 9.7383 59.2013 9.73654 59.0397 9.74061C56.1627 9.813 53.886 11.7006 53.9546 13.9568C53.9851 14.9614 54.4755 15.8697 55.2642 16.5619C55.4661 16.739 55.4357 17.0576 55.2016 17.1982C53.9116 17.9729 53.0938 19.2036 53.1353 20.5692C53.1782 21.9806 54.1287 23.2018 55.5388 23.9007C55.7792 24.0199 55.8399 24.3222 55.6349 24.4873C49.5649 29.3795 40.2775 29.1567 34.5018 23.8496Z" fill="#F3525C"/>
</svg>
