<svg width="220" height="84" viewBox="0 0 220 84" fill="none" xmlns="http://www.w3.org/2000/svg">
<path d="M85.6329 11.8193C85.6731 11.8193 85.6931 11.8494 85.6931 11.9097C85.6931 11.9699 85.6731 12.0001 85.6329 12.0001C85.4722 12.0001 85.2211 11.99 84.8796 11.9699C84.498 11.9498 84.1916 11.9398 83.9606 11.9398C83.7397 11.9398 83.4484 11.9498 83.0868 11.9699C82.7654 11.99 82.5244 12.0001 82.3637 12.0001C82.3235 12.0001 82.3034 11.9699 82.3034 11.9097C82.3034 11.8494 82.3235 11.8193 82.3637 11.8193C82.665 11.8193 82.8809 11.7741 83.0115 11.6837C83.1421 11.5933 83.2074 11.4376 83.2074 11.2167C83.2074 11.056 83.1873 10.8953 83.1471 10.7346L81.9268 4.66322L78.9589 10.0566C78.6978 10.5287 78.5672 10.8953 78.5672 11.1564C78.5672 11.3874 78.6626 11.5581 78.8535 11.6686C79.0443 11.7691 79.3356 11.8193 79.7273 11.8193C79.7674 11.8193 79.7825 11.8494 79.7725 11.9097C79.7725 11.9699 79.7524 12.0001 79.7122 12.0001C79.5816 12.0001 79.3255 11.99 78.9439 11.9699C78.4819 11.9498 78.1253 11.9398 77.8742 11.9398C77.6633 11.9398 77.4172 11.9498 77.136 11.9699C76.8548 11.99 76.6389 12.0001 76.4882 12.0001C76.448 12.0001 76.4279 11.9699 76.4279 11.9097C76.4279 11.8494 76.448 11.8193 76.4882 11.8193C76.7694 11.8193 77.1009 11.6586 77.4825 11.3372C77.8642 11.0158 78.2207 10.5538 78.5522 9.95116L82.7554 2.44862C82.7755 2.41848 82.8157 2.40342 82.8759 2.40342C82.9061 2.40342 82.9362 2.40844 82.9663 2.41848C82.9964 2.42853 83.0165 2.44359 83.0266 2.46368L84.6687 10.7346C84.729 11.066 84.7792 11.297 84.8194 11.4276C84.8696 11.5581 84.9549 11.6586 85.0755 11.7289C85.196 11.7891 85.3818 11.8193 85.6329 11.8193Z" fill="black"/>
<path d="M92.8412 10.7948C92.8512 10.7848 92.8663 10.7798 92.8864 10.7798C92.9165 10.7798 92.9416 10.7998 92.9617 10.84C92.9818 10.8702 92.9818 10.9003 92.9617 10.9304C92.6001 11.3522 92.2737 11.6586 91.9825 11.8494C91.7012 12.0402 91.415 12.1356 91.1237 12.1356C90.6517 12.1356 90.4157 11.8695 90.4157 11.3372C90.4157 11.1865 90.4307 11.0208 90.4609 10.84L90.7019 9.46907C90.3504 10.3429 89.9436 11.0158 89.4816 11.4878C89.0297 11.9599 88.5476 12.1959 88.0353 12.1959C87.3423 12.1959 86.9958 11.7841 86.9958 10.9605C86.9958 10.6994 87.0209 10.4483 87.0712 10.2073L87.5984 7.52564C87.6286 7.37499 87.6436 7.25446 87.6436 7.16407C87.6436 6.93307 87.5633 6.81757 87.4026 6.81757C87.3022 6.81757 87.1917 6.86277 87.0712 6.95316C86.9607 7.03351 86.81 7.16407 86.6192 7.34486C86.5991 7.36494 86.579 7.37499 86.5589 7.37499C86.5288 7.37499 86.5037 7.35992 86.4836 7.32979C86.4635 7.28962 86.4685 7.25446 86.4987 7.22433C86.8401 6.82259 87.1364 6.52631 87.3875 6.33548C87.6487 6.14465 87.9198 6.04924 88.2011 6.04924C88.6932 6.04924 88.9393 6.33548 88.9393 6.90796C88.9393 7.04857 88.9141 7.25446 88.8639 7.52564L88.3969 9.92103C88.3467 10.142 88.3216 10.368 88.3216 10.599C88.3216 11.0911 88.4823 11.3372 88.8037 11.3372C89.0849 11.3372 89.3762 11.1564 89.6775 10.7948C89.9788 10.4232 90.26 9.88588 90.5211 9.18283C90.7923 8.47978 91.0183 7.63612 91.1991 6.65185L91.2443 6.36561C91.2945 6.16474 91.5757 6.0643 92.0879 6.0643C92.2587 6.0643 92.3842 6.07937 92.4646 6.1095C92.5449 6.12958 92.5851 6.15469 92.5851 6.18482L92.5248 6.5012C92.4244 6.97324 92.3691 7.2394 92.3591 7.29966L91.7414 10.6592C91.7213 10.7496 91.7113 10.8601 91.7113 10.9907C91.7113 11.2619 91.7967 11.3974 91.9674 11.3974C92.1783 11.3974 92.4696 11.1966 92.8412 10.7948Z" fill="black"/>
<path d="M99.4788 10.7948C99.4888 10.7848 99.5039 10.7798 99.524 10.7798C99.5541 10.7798 99.5792 10.7998 99.5993 10.84C99.6194 10.8702 99.6194 10.9003 99.5993 10.9304C99.2377 11.3522 98.9113 11.6586 98.62 11.8494C98.3388 12.0402 98.0526 12.1356 97.7613 12.1356C97.2893 12.1356 97.0532 11.8695 97.0532 11.3372C97.0532 11.1865 97.0683 11.0208 97.0984 10.84L97.5504 8.24878C97.2591 8.84135 96.9227 9.30335 96.541 9.63479C96.1594 9.95619 95.7777 10.1169 95.3961 10.1169C95.0747 10.1169 94.8236 10.0164 94.6428 9.81558C94.4721 9.60466 94.3867 9.3134 94.3867 8.94178C94.3867 8.78109 94.4118 8.57519 94.462 8.32411L94.6277 7.52564C94.6579 7.37499 94.6729 7.25446 94.6729 7.16407C94.6729 6.93307 94.5926 6.81757 94.4319 6.81757C94.3314 6.81757 94.2159 6.86277 94.0854 6.95316C93.9649 7.04355 93.8142 7.17412 93.6334 7.34486C93.6133 7.36494 93.5983 7.37499 93.5882 7.37499C93.5581 7.37499 93.533 7.35992 93.5129 7.32979C93.4928 7.28962 93.4928 7.25446 93.5129 7.22433C93.8544 6.82259 94.1557 6.52631 94.4168 6.33548C94.6779 6.14465 94.9491 6.04924 95.2303 6.04924C95.7124 6.04924 95.9535 6.34552 95.9535 6.93809C95.9535 7.12892 95.9334 7.32477 95.8932 7.52564L95.8028 7.9776C95.7426 8.28895 95.7124 8.53 95.7124 8.70074C95.7124 8.91165 95.7476 9.05729 95.8179 9.13764C95.8882 9.21798 95.9886 9.25816 96.1192 9.25816C96.3201 9.25816 96.536 9.14768 96.767 8.92672C96.998 8.70576 97.2139 8.37934 97.4148 7.94747C97.6157 7.50555 97.7714 6.97827 97.8818 6.36561C97.9321 6.16474 98.2133 6.0643 98.7255 6.0643C98.8962 6.0643 99.0218 6.07937 99.1021 6.1095C99.1825 6.12958 99.2227 6.15469 99.2227 6.18482L99.1624 6.5012C99.062 6.97324 99.0067 7.2394 98.9967 7.29966L98.379 10.6592C98.3589 10.7496 98.3489 10.8601 98.3489 10.9907C98.3489 11.2619 98.4342 11.3974 98.605 11.3974C98.8159 11.3974 99.1072 11.1966 99.4788 10.7948Z" fill="black"/>
<path d="M106.641 10.7948C106.651 10.7848 106.666 10.7798 106.686 10.7798C106.717 10.7798 106.742 10.7998 106.762 10.84C106.782 10.8702 106.782 10.9003 106.762 10.9304C106.4 11.3522 106.074 11.6586 105.783 11.8494C105.501 12.0402 105.215 12.1356 104.924 12.1356C104.452 12.1356 104.216 11.8695 104.216 11.3372C104.216 11.1865 104.231 11.0208 104.261 10.84L104.502 9.46907C104.15 10.3429 103.744 11.0158 103.282 11.4878C102.83 11.9599 102.348 12.1959 101.835 12.1959C101.142 12.1959 100.796 11.7841 100.796 10.9605C100.796 10.6994 100.821 10.4483 100.871 10.2073L101.399 7.52564C101.429 7.37499 101.444 7.25446 101.444 7.16407C101.444 6.93307 101.363 6.81757 101.203 6.81757C101.102 6.81757 100.992 6.86277 100.871 6.95316C100.761 7.03351 100.61 7.16407 100.419 7.34486C100.399 7.36494 100.379 7.37499 100.359 7.37499C100.329 7.37499 100.304 7.35992 100.284 7.32979C100.264 7.28962 100.269 7.25446 100.299 7.22433C100.64 6.82259 100.937 6.52631 101.188 6.33548C101.449 6.14465 101.72 6.04924 102.001 6.04924C102.493 6.04924 102.739 6.33548 102.739 6.90796C102.739 7.04857 102.714 7.25446 102.664 7.52564L102.197 9.92103C102.147 10.142 102.122 10.368 102.122 10.599C102.122 11.0911 102.282 11.3372 102.604 11.3372C102.885 11.3372 103.176 11.1564 103.478 10.7948C103.779 10.4232 104.06 9.88588 104.321 9.18283C104.592 8.47978 104.818 7.63612 104.999 6.65185L105.044 6.36561C105.095 6.16474 105.376 6.0643 105.888 6.0643C106.059 6.0643 106.184 6.07937 106.265 6.1095C106.345 6.12958 106.385 6.15469 106.385 6.18482L106.325 6.5012C106.224 6.97324 106.169 7.2394 106.159 7.29966L105.542 10.6592C105.521 10.7496 105.511 10.8601 105.511 10.9907C105.511 11.2619 105.597 11.3974 105.768 11.3974C105.978 11.3974 106.27 11.1966 106.641 10.7948Z" fill="black"/>
<path d="M106.951 14.5612C106.931 14.5913 106.866 14.5913 106.756 14.5612C106.645 14.5411 106.545 14.5009 106.454 14.4406C106.354 14.3904 106.309 14.3502 106.319 14.3201L112.104 0.927014C112.124 0.886839 112.189 0.881817 112.3 0.911947C112.41 0.942078 112.511 0.987274 112.601 1.04754C112.701 1.09775 112.742 1.14295 112.721 1.18312L106.951 14.5612Z" fill="black"/>
<path d="M120.264 10.84C120.224 11.0308 120.204 11.1966 120.204 11.3372C120.204 11.538 120.264 11.6686 120.385 11.7289C120.516 11.7891 120.762 11.8193 121.123 11.8193C121.143 11.8193 121.153 11.8494 121.153 11.9097C121.153 11.9699 121.143 12.0001 121.123 12.0001C120.792 12.0001 120.531 11.995 120.34 11.985L119.33 11.9699L118.095 11.985C117.924 11.995 117.698 12.0001 117.417 12.0001C117.397 12.0001 117.387 11.9699 117.387 11.9097C117.397 11.8494 117.412 11.8193 117.432 11.8193C117.764 11.8193 118.015 11.7891 118.185 11.7289C118.356 11.6686 118.482 11.5632 118.562 11.4125C118.642 11.2619 118.708 11.0359 118.758 10.7346L119.828 4.63309L113.093 12.1959C113.073 12.2059 113.038 12.211 112.988 12.211C112.948 12.211 112.913 12.211 112.882 12.211C112.832 12.211 112.777 12.1909 112.717 12.1507C112.656 12.1206 112.631 12.0904 112.641 12.0603L114.103 3.7593C114.143 3.56847 114.163 3.40275 114.163 3.26214C114.163 3.06127 114.098 2.93071 113.967 2.87045C113.837 2.80014 113.591 2.76499 113.229 2.76499C113.209 2.76499 113.199 2.7449 113.199 2.70473C113.199 2.62438 113.214 2.5842 113.244 2.5842L114.012 2.59927C114.454 2.61936 114.796 2.6294 115.037 2.6294C115.408 2.6294 115.825 2.61936 116.287 2.59927L116.935 2.5842C116.955 2.5842 116.965 2.61433 116.965 2.6746C116.965 2.73486 116.955 2.76499 116.935 2.76499C116.594 2.76499 116.337 2.79512 116.167 2.85538C116.006 2.91564 115.886 3.0211 115.805 3.17175C115.725 3.32241 115.66 3.55341 115.609 3.86476L114.51 10.0265L121.259 2.44862C121.279 2.43857 121.314 2.43355 121.364 2.43355C121.414 2.43355 121.45 2.43355 121.47 2.43355C121.52 2.43355 121.57 2.45364 121.62 2.49381C121.681 2.52394 121.706 2.55407 121.696 2.5842L120.264 10.84Z" fill="black"/>
<path d="M128.859 10.7948C128.869 10.7848 128.884 10.7798 128.904 10.7798C128.944 10.7798 128.974 10.7998 128.994 10.84C129.014 10.8702 129.014 10.9003 128.994 10.9304C128.633 11.3522 128.306 11.6586 128.015 11.8494C127.724 12.0402 127.437 12.1356 127.156 12.1356C126.684 12.1356 126.448 11.8695 126.448 11.3372C126.448 11.1865 126.463 11.0208 126.493 10.84L126.764 9.27322H124.565L124.113 11.8193C124.063 12.0201 123.782 12.1206 123.269 12.1206C122.938 12.1206 122.772 12.0804 122.772 12.0001L122.832 11.6837C122.933 11.2116 122.988 10.9455 122.998 10.8852L123.616 7.52564C123.636 7.43525 123.646 7.32477 123.646 7.1942C123.646 6.92303 123.561 6.78744 123.39 6.78744C123.179 6.78744 122.888 6.98831 122.516 7.39005C122.506 7.4001 122.491 7.40512 122.471 7.40512C122.441 7.40512 122.416 7.39005 122.396 7.35992C122.375 7.31975 122.375 7.2846 122.396 7.25446C122.757 6.83263 123.078 6.52631 123.36 6.33548C123.651 6.14465 123.942 6.04924 124.234 6.04924C124.706 6.04924 124.942 6.31539 124.942 6.8477C124.942 6.99835 124.927 7.16407 124.896 7.34486L124.625 8.91165H126.825L127.277 6.36561C127.327 6.16474 127.608 6.0643 128.12 6.0643C128.291 6.0643 128.417 6.07937 128.497 6.1095C128.577 6.12958 128.618 6.15469 128.618 6.18482L128.557 6.5012C128.457 6.97324 128.402 7.2394 128.392 7.29966L127.774 10.6592C127.754 10.7496 127.744 10.8601 127.744 10.9907C127.744 11.2619 127.829 11.3974 128 11.3974C128.211 11.3974 128.497 11.1966 128.859 10.7948Z" fill="black"/>
<path d="M138.944 5.98897C139.205 5.98897 139.436 6.07434 139.637 6.24509C139.848 6.40578 139.953 6.62674 139.953 6.90796C139.953 7.09879 139.898 7.26953 139.788 7.42018C139.677 7.56079 139.522 7.6311 139.321 7.6311C139.1 7.6311 138.944 7.57586 138.854 7.46538C138.773 7.34486 138.703 7.17412 138.643 6.95316C138.603 6.8025 138.562 6.69202 138.522 6.62172C138.482 6.55141 138.417 6.51626 138.326 6.51626C137.854 6.51626 137.498 7.2394 137.257 8.68567C137.217 8.93676 137.196 9.21798 137.196 9.52933C137.196 10.0817 137.282 10.5437 137.453 10.9153C137.633 11.2769 137.889 11.4577 138.221 11.4577C138.522 11.4577 138.859 11.302 139.23 10.9907H139.26C139.291 10.9907 139.321 11.0057 139.351 11.0359C139.381 11.066 139.386 11.0961 139.366 11.1263C138.783 11.8394 138.191 12.1959 137.588 12.1959C137.096 12.1959 136.729 11.995 136.488 11.5933C136.257 11.1815 136.142 10.6643 136.142 10.0416C136.142 9.87082 136.162 9.6147 136.202 9.27322H135.178L134.726 11.8193C134.706 11.9097 134.625 11.98 134.485 12.0302C134.344 12.0904 134.143 12.1206 133.882 12.1206C133.551 12.1206 133.385 12.0804 133.385 12.0001C133.395 11.9398 133.425 11.7942 133.475 11.5632C133.536 11.3322 133.581 11.1062 133.611 10.8852L133.912 9.27322H132.858C132.747 9.88588 132.541 10.4132 132.24 10.8551C131.949 11.297 131.617 11.6335 131.246 11.8645C130.884 12.0854 130.533 12.1959 130.191 12.1959C129.93 12.1959 129.694 12.1156 129.483 11.9549C129.282 11.7841 129.182 11.5632 129.182 11.292C129.182 11.1012 129.237 10.9304 129.347 10.7798C129.458 10.6291 129.619 10.5538 129.829 10.5538C130.04 10.5538 130.186 10.614 130.266 10.7346C130.357 10.845 130.432 11.0108 130.492 11.2317C130.533 11.3824 130.573 11.4929 130.613 11.5632C130.653 11.6335 130.718 11.6686 130.809 11.6686C131.281 11.6686 131.637 10.9455 131.878 9.4992C131.919 9.24811 131.939 8.96689 131.939 8.65554C131.939 8.10315 131.848 7.64616 131.667 7.2846C131.497 6.91298 131.246 6.72718 130.914 6.72718C130.723 6.72718 130.533 6.7774 130.342 6.87783C130.151 6.97827 130.005 7.08372 129.905 7.1942H129.875C129.845 7.1942 129.814 7.17914 129.784 7.14901C129.754 7.11888 129.749 7.09377 129.769 7.07368C130.322 6.35054 130.919 5.98897 131.562 5.98897C132.054 5.98897 132.416 6.19487 132.647 6.60665C132.878 7.0084 132.993 7.52062 132.993 8.14332C132.993 8.31406 132.973 8.57017 132.933 8.91165H133.972L135.027 3.12656C135.067 2.93573 135.087 2.76499 135.087 2.61433C135.087 2.34316 134.992 2.20757 134.801 2.20757C134.64 2.20757 134.429 2.27285 134.168 2.40342H134.153C134.103 2.40342 134.068 2.37831 134.048 2.32809C134.038 2.26783 134.053 2.23268 134.093 2.22263L136.443 1.07767H136.473C136.513 1.07767 136.549 1.09273 136.579 1.12286C136.609 1.15299 136.619 1.1781 136.609 1.19819L135.238 8.91165H136.277C136.398 8.299 136.604 7.77171 136.895 7.32979C137.196 6.88787 137.528 6.55644 137.889 6.33548C138.251 6.10448 138.603 5.98897 138.944 5.98897Z" fill="black"/>
<path d="M146.541 10.7948C146.551 10.7848 146.566 10.7798 146.586 10.7798C146.616 10.7798 146.641 10.7998 146.661 10.84C146.682 10.8702 146.682 10.9003 146.661 10.9304C146.3 11.3522 145.973 11.6586 145.682 11.8494C145.401 12.0402 145.115 12.1356 144.824 12.1356C144.351 12.1356 144.115 11.8695 144.115 11.3372C144.115 11.1865 144.13 11.0208 144.161 10.84L144.402 9.46907C144.05 10.3429 143.643 11.0158 143.181 11.4878C142.729 11.9599 142.247 12.1959 141.735 12.1959C141.042 12.1959 140.696 11.7841 140.696 10.9605C140.696 10.6994 140.721 10.4483 140.771 10.2073L141.298 7.52564C141.328 7.37499 141.343 7.25446 141.343 7.16407C141.343 6.93307 141.263 6.81757 141.102 6.81757C141.002 6.81757 140.891 6.86277 140.771 6.95316C140.66 7.03351 140.51 7.16407 140.319 7.34486C140.299 7.36494 140.279 7.37499 140.259 7.37499C140.229 7.37499 140.203 7.35992 140.183 7.32979C140.163 7.28962 140.168 7.25446 140.198 7.22433C140.54 6.82259 140.836 6.52631 141.087 6.33548C141.348 6.14465 141.62 6.04924 141.901 6.04924C142.393 6.04924 142.639 6.33548 142.639 6.90796C142.639 7.04857 142.614 7.25446 142.564 7.52564L142.097 9.92103C142.046 10.142 142.021 10.368 142.021 10.599C142.021 11.0911 142.182 11.3372 142.503 11.3372C142.785 11.3372 143.076 11.1564 143.377 10.7948C143.679 10.4232 143.96 9.88588 144.221 9.18283C144.492 8.47978 144.718 7.63612 144.899 6.65185L144.944 6.36561C144.994 6.16474 145.275 6.0643 145.788 6.0643C145.958 6.0643 146.084 6.07937 146.164 6.1095C146.245 6.12958 146.285 6.15469 146.285 6.18482L146.225 6.5012C146.124 6.97324 146.069 7.2394 146.059 7.29966L145.441 10.6592C145.421 10.7496 145.411 10.8601 145.411 10.9907C145.411 11.2619 145.496 11.3974 145.667 11.3974C145.878 11.3974 146.169 11.1966 146.541 10.7948Z" fill="black"/>
<path d="M151.28 6.07937C151.803 6.07937 152.194 6.21495 152.455 6.48613C152.727 6.75731 152.862 7.14901 152.862 7.66123C152.862 7.83197 152.847 8.00773 152.817 8.18852C152.717 8.86144 152.481 9.49418 152.109 10.0868C151.747 10.6693 151.3 11.1363 150.768 11.4878C150.246 11.8394 149.714 12.0151 149.171 12.0151C149.01 12.0151 148.81 12.0051 148.569 11.985L148.086 14.6817C148.046 14.9227 148.026 15.0684 148.026 15.1186C148.026 15.2692 148.061 15.3747 148.132 15.435C148.202 15.5053 148.317 15.5404 148.478 15.5404C148.528 15.5404 148.634 15.5304 148.795 15.5103C148.835 15.5103 148.86 15.5354 148.87 15.5856C148.89 15.6358 148.88 15.666 148.84 15.676L145.977 16.143C145.947 16.1531 145.927 16.128 145.917 16.0677C145.897 16.0074 145.907 15.9723 145.947 15.9622C146.148 15.912 146.294 15.8518 146.384 15.7815C146.474 15.7212 146.545 15.6208 146.595 15.4802C146.645 15.3395 146.7 15.1085 146.761 14.7871L148.056 7.57084C147.845 7.69136 147.589 7.8621 147.288 8.08306C147.278 8.0931 147.263 8.09812 147.243 8.09812C147.203 8.09812 147.172 8.07804 147.152 8.03786C147.132 7.99769 147.142 7.96254 147.183 7.93241C147.584 7.61101 147.891 7.38001 148.102 7.2394L148.297 6.18482C148.297 6.16474 148.383 6.10448 148.553 6.00404C148.835 5.8333 149.071 5.6726 149.262 5.52195C149.452 5.37129 149.573 5.20055 149.623 5.00973C149.633 4.96955 149.663 4.95449 149.714 4.96453C149.774 4.97457 149.799 4.99968 149.789 5.03986L149.533 6.47107C150.135 6.20993 150.718 6.07937 151.28 6.07937ZM151.461 8.68567C151.481 8.50489 151.491 8.3693 151.491 8.27891C151.491 7.84704 151.391 7.49551 151.19 7.22433C150.999 6.95316 150.683 6.81757 150.241 6.81757C149.97 6.81757 149.708 6.85272 149.457 6.92303L148.674 11.3522C149.005 11.4929 149.357 11.5632 149.729 11.5632C150.211 11.5632 150.592 11.307 150.874 10.7948C151.155 10.2726 151.351 9.56951 151.461 8.68567Z" fill="black"/>
<path d="M82.5844 27.3201H77.5124V26.7121H82.5844V27.3201Z" fill="black"/>
<path d="M86.4944 25.6641H87.9824C89.417 25.6641 90.1344 26.2214 90.1344 27.3361C90.1344 28.4454 89.417 29.0001 87.9824 29.0001H85.8224V23.4001H89.7024V24.0401H86.4944V25.6641ZM86.4944 28.3601H88.0144C88.1744 28.3601 88.3157 28.3547 88.4384 28.3441C88.561 28.3281 88.689 28.3014 88.8224 28.2641C88.961 28.2214 89.073 28.1654 89.1584 28.0961C89.2437 28.0214 89.313 27.9201 89.3664 27.7921C89.425 27.6641 89.4544 27.5121 89.4544 27.3361C89.4544 27.1174 89.4144 26.9361 89.3344 26.7921C89.2544 26.6427 89.1397 26.5361 88.9904 26.4721C88.841 26.4081 88.6917 26.3654 88.5424 26.3441C88.393 26.3174 88.217 26.3041 88.0144 26.3041H86.4944V28.3601Z" fill="black"/>
<path d="M90.7425 27.0801C90.7425 26.4507 90.9345 25.9574 91.3185 25.6001C91.7078 25.2427 92.1532 25.0641 92.6545 25.0641C93.1238 25.0641 93.5105 25.1814 93.8145 25.4161C94.1238 25.6507 94.3265 25.9414 94.4225 26.2881C94.5185 26.6294 94.5238 26.9867 94.4385 27.3601H91.3825C91.4198 27.7387 91.5878 28.0241 91.8865 28.2161C92.1852 28.4081 92.5452 28.5041 92.9665 28.5041C93.4358 28.5041 93.8572 28.4001 94.2305 28.1921V28.8161C93.8732 29.0027 93.4198 29.0961 92.8705 29.0961C92.2625 29.0961 91.7558 28.9227 91.3505 28.5761C90.9452 28.2294 90.7425 27.7307 90.7425 27.0801ZM93.8705 26.8001C93.8865 26.6881 93.8785 26.5707 93.8465 26.4481C93.8145 26.3254 93.7558 26.2027 93.6705 26.0801C93.5905 25.9574 93.4652 25.8561 93.2945 25.7761C93.1238 25.6961 92.9238 25.6561 92.6945 25.6561C92.3478 25.6561 92.0465 25.7574 91.7905 25.9601C91.5398 26.1627 91.4038 26.4427 91.3825 26.8001H93.8705Z" fill="black"/>
<path d="M95.9497 25.8001C96.3817 25.3094 96.899 25.0641 97.5017 25.0641C98.051 25.0641 98.507 25.2561 98.8697 25.6401C99.2377 26.0241 99.4217 26.5041 99.4217 27.0801C99.4217 27.6561 99.2377 28.1361 98.8697 28.5201C98.507 28.9041 98.051 29.0961 97.5017 29.0961C96.8937 29.0961 96.3977 28.8721 96.0137 28.4241V30.7601H95.3737V25.1601H95.9497V25.8001ZM98.3897 28.1121C98.651 27.8507 98.7817 27.5067 98.7817 27.0801C98.7817 26.6534 98.651 26.3094 98.3897 26.0481C98.1337 25.7867 97.8137 25.6561 97.4297 25.6561C97.1043 25.6561 96.8163 25.7467 96.5657 25.9281C96.315 26.1094 96.131 26.3334 96.0137 26.6001V27.5601C96.131 27.8267 96.315 28.0507 96.5657 28.2321C96.8163 28.4134 97.1043 28.5041 97.4297 28.5041C97.8137 28.5041 98.1337 28.3734 98.3897 28.1121Z" fill="black"/>
<path d="M100.982 29.0001H100.342V25.1601H103.15V25.7521H100.982V29.0001Z" fill="black"/>
<path d="M106.955 28.2001C106.955 28.3974 107.053 28.4961 107.251 28.4961C107.336 28.4961 107.435 28.4774 107.547 28.4401V28.9601C107.387 29.0187 107.227 29.0481 107.067 29.0481C106.699 29.0481 106.464 28.8934 106.363 28.5841C105.952 28.9254 105.453 29.0961 104.867 29.0961C104.493 29.0961 104.173 28.9974 103.907 28.8001C103.645 28.5974 103.515 28.3067 103.515 27.9281C103.515 27.4747 103.683 27.1467 104.019 26.9441C104.36 26.7361 104.771 26.6321 105.251 26.6321C105.603 26.6321 105.957 26.6721 106.315 26.7521V26.6161C106.315 26.3227 106.219 26.0907 106.027 25.9201C105.835 25.7441 105.565 25.6561 105.219 25.6561C104.733 25.6561 104.267 25.7521 103.819 25.9441V25.3201C104.32 25.1494 104.808 25.0641 105.283 25.0641C105.805 25.0641 106.213 25.2054 106.507 25.4881C106.805 25.7654 106.955 26.1681 106.955 26.6961V28.2001ZM104.171 27.8961C104.171 28.1094 104.251 28.2721 104.411 28.3841C104.576 28.4907 104.773 28.5441 105.003 28.5441C105.531 28.5441 105.968 28.3574 106.315 27.9841V27.2801C105.952 27.2054 105.627 27.1681 105.339 27.1681C105.013 27.1681 104.736 27.2267 104.507 27.3441C104.283 27.4561 104.171 27.6401 104.171 27.8961Z" fill="black"/>
<path d="M108.841 29.0001H108.233V25.1601H108.929L110.329 27.2881L111.729 25.1601H112.425V29.0001H111.817V26.1041L110.569 28.0001H110.089L108.841 26.1041V29.0001Z" fill="black"/>
<path d="M113.952 28.5601C113.547 28.1974 113.344 27.7041 113.344 27.0801C113.344 26.4561 113.547 25.9654 113.952 25.6081C114.357 25.2454 114.837 25.0641 115.392 25.0641C115.952 25.0641 116.432 25.2454 116.832 25.6081C117.237 25.9654 117.44 26.4561 117.44 27.0801C117.44 27.7041 117.237 28.1974 116.832 28.5601C116.432 28.9174 115.952 29.0961 115.392 29.0961C114.837 29.0961 114.357 28.9174 113.952 28.5601ZM116.4 28.1121C116.667 27.8561 116.8 27.5121 116.8 27.0801C116.8 26.6481 116.667 26.3067 116.4 26.0561C116.133 25.8001 115.797 25.6721 115.392 25.6721C114.987 25.6721 114.651 25.8001 114.384 26.0561C114.117 26.3067 113.984 26.6481 113.984 27.0801C113.984 27.5121 114.117 27.8561 114.384 28.1121C114.651 28.3627 114.987 28.4881 115.392 28.4881C115.797 28.4881 116.133 28.3627 116.4 28.1121Z" fill="black"/>
<path d="M119.833 29.0001H119.193V25.7521H117.777V25.1601H121.241V25.7521H119.833V29.0001Z" fill="black"/>
<path d="M82.5844 37.3201H77.5124V36.7121H82.5844V37.3201Z" fill="black"/>
<path d="M90.4864 39.0001H89.8144V34.5201L86.4464 39.0001H85.8224V33.4001H86.4944V37.8721L89.8624 33.4001H90.4864V39.0001Z" fill="black"/>
<path d="M92.3872 35.8001C92.8192 35.3094 93.3365 35.0641 93.9392 35.0641C94.4885 35.0641 94.9445 35.2561 95.3072 35.6401C95.6752 36.0241 95.8592 36.5041 95.8592 37.0801C95.8592 37.6561 95.6752 38.1361 95.3072 38.5201C94.9445 38.9041 94.4885 39.0961 93.9392 39.0961C93.3312 39.0961 92.8352 38.8721 92.4512 38.4241V40.7601H91.8112V35.1601H92.3872V35.8001ZM94.8272 38.1121C95.0885 37.8507 95.2192 37.5067 95.2192 37.0801C95.2192 36.6534 95.0885 36.3094 94.8272 36.0481C94.5712 35.7867 94.2512 35.6561 93.8672 35.6561C93.5418 35.6561 93.2538 35.7467 93.0032 35.9281C92.7525 36.1094 92.5685 36.3334 92.4512 36.6001V37.5601C92.5685 37.8267 92.7525 38.0507 93.0032 38.2321C93.2538 38.4134 93.5418 38.5041 93.8672 38.5041C94.2512 38.5041 94.5712 38.3734 94.8272 38.1121Z" fill="black"/>
<path d="M97.4199 39.0001H96.7799V35.1601H99.5879V35.7521H97.4199V39.0001Z" fill="black"/>
<path d="M103.392 38.2001C103.392 38.3974 103.491 38.4961 103.688 38.4961C103.773 38.4961 103.872 38.4774 103.984 38.4401V38.9601C103.824 39.0187 103.664 39.0481 103.504 39.0481C103.136 39.0481 102.901 38.8934 102.8 38.5841C102.389 38.9254 101.891 39.0961 101.304 39.0961C100.931 39.0961 100.611 38.9974 100.344 38.8001C100.083 38.5974 99.9521 38.3067 99.9521 37.9281C99.9521 37.4747 100.12 37.1467 100.456 36.9441C100.797 36.7361 101.208 36.6321 101.688 36.6321C102.04 36.6321 102.395 36.6721 102.752 36.7521V36.6161C102.752 36.3227 102.656 36.0907 102.464 35.9201C102.272 35.7441 102.003 35.6561 101.656 35.6561C101.171 35.6561 100.704 35.7521 100.256 35.9441V35.3201C100.757 35.1494 101.245 35.0641 101.72 35.0641C102.243 35.0641 102.651 35.2054 102.944 35.4881C103.243 35.7654 103.392 36.1681 103.392 36.6961V38.2001ZM100.608 37.8961C100.608 38.1094 100.688 38.2721 100.848 38.3841C101.013 38.4907 101.211 38.5441 101.44 38.5441C101.968 38.5441 102.405 38.3574 102.752 37.9841V37.2801C102.389 37.2054 102.064 37.1681 101.776 37.1681C101.451 37.1681 101.173 37.2267 100.944 37.3441C100.72 37.4561 100.608 37.6401 100.608 37.8961Z" fill="black"/>
<path d="M82.5844 47.3201H77.5124V46.7121H82.5844V47.3201Z" fill="black"/>
<path d="M86.4944 49.0001H85.8224V43.4001H86.4944V45.8241H87.7664L89.4544 43.4001H90.2224L88.3184 46.1281L90.3904 49.0001H89.6224L87.7904 46.4641H86.4944V49.0001Z" fill="black"/>
<path d="M91.5356 45.8001C91.9676 45.3094 92.4849 45.0641 93.0876 45.0641C93.6369 45.0641 94.093 45.2561 94.4556 45.6401C94.8236 46.0241 95.0076 46.5041 95.0076 47.0801C95.0076 47.6561 94.8236 48.1361 94.4556 48.5201C94.093 48.9041 93.6369 49.0961 93.0876 49.0961C92.4796 49.0961 91.9836 48.8721 91.5996 48.4241V50.7601H90.9596V45.1601H91.5356V45.8001ZM93.9756 48.1121C94.2369 47.8507 94.3676 47.5067 94.3676 47.0801C94.3676 46.6534 94.2369 46.3094 93.9756 46.0481C93.7196 45.7867 93.3996 45.6561 93.0156 45.6561C92.6903 45.6561 92.4023 45.7467 92.1516 45.9281C91.901 46.1094 91.717 46.3334 91.5996 46.6001V47.5601C91.717 47.8267 91.901 48.0507 92.1516 48.2321C92.4023 48.4134 92.6903 48.5041 93.0156 48.5041C93.3996 48.5041 93.7196 48.3734 93.9756 48.1121Z" fill="black"/>
<path d="M97.7524 49.0001H95.9284V45.1601H96.5684V46.5041H97.7524C98.211 46.5041 98.5737 46.6214 98.8404 46.8561C99.107 47.0907 99.2404 47.3894 99.2404 47.7521C99.2404 48.1147 99.107 48.4134 98.8404 48.6481C98.5737 48.8827 98.211 49.0001 97.7524 49.0001ZM96.5684 47.0801V48.4241H97.6724C97.9604 48.4241 98.1844 48.3681 98.3444 48.2561C98.5097 48.1441 98.5924 47.9761 98.5924 47.7521C98.5924 47.5281 98.5097 47.3601 98.3444 47.2481C98.1844 47.1361 97.9604 47.0801 97.6724 47.0801H96.5684ZM100.624 49.0001H99.9844V45.1601H100.624V49.0001Z" fill="black"/>
<path d="M102.419 49.0001H101.811V45.1601H102.507L103.907 47.2881L105.307 45.1601H106.003V49.0001H105.395V46.1041L104.147 48.0001H103.667L102.419 46.1041V49.0001Z" fill="black"/>
<path d="M106.922 47.0961C106.922 46.7601 106.984 46.4587 107.106 46.1921C107.229 45.9254 107.389 45.7121 107.586 45.5521C107.789 45.3921 108.01 45.2721 108.25 45.1921C108.496 45.1067 108.746 45.0641 109.002 45.0641C109.477 45.0641 109.872 45.1681 110.186 45.3761V46.0001C109.893 45.7707 109.525 45.6561 109.082 45.6561C108.666 45.6561 108.309 45.7761 108.01 46.0161C107.712 46.2561 107.562 46.6107 107.562 47.0801C107.562 47.5441 107.709 47.8987 108.002 48.1441C108.301 48.3841 108.656 48.5041 109.066 48.5041C109.493 48.5041 109.88 48.4001 110.226 48.1921V48.8321C109.864 49.0081 109.448 49.0961 108.978 49.0961C108.424 49.0961 107.941 48.9227 107.53 48.5761C107.125 48.2294 106.922 47.7361 106.922 47.0961Z" fill="black"/>
<path d="M111.803 49.0001H111.163V45.1601H111.803V46.7601H112.579L113.795 45.1601H114.539L113.083 47.0721L114.715 49.0001H113.963L112.555 47.3521H111.803V49.0001Z" fill="black"/>
<path d="M115.894 49.0001H115.35V45.1601H115.99V47.9681L118.342 45.1601H118.886V49.0001H118.246V46.1921L115.894 49.0001Z" fill="black"/>
<path d="M122.957 44.2321C122.642 44.4561 122.269 44.5681 121.837 44.5681C121.405 44.5681 121.032 44.4561 120.717 44.2321V43.6561C121.074 43.8907 121.448 44.0081 121.837 44.0081C122.226 44.0081 122.6 43.8907 122.957 43.6561V44.2321ZM120.613 49.0001H120.069V45.1601H120.709V47.9681L123.061 45.1601H123.605V49.0001H122.965V46.1921L120.613 49.0001Z" fill="black"/>
<path d="M131.588 49.0001H130.916V44.5201L127.548 49.0001H126.924V43.4001H127.596V47.8721L130.964 43.4001H131.588V49.0001Z" fill="black"/>
<path d="M133.553 49.0001H132.913V45.1601H133.553V46.7841H135.777V45.1601H136.417V49.0001H135.777V47.3761H133.553V49.0001Z" fill="black"/>
<path d="M142.984 49.0001H142.264L140.96 47.3921H140.344V49.0001H139.704V47.3921H139.088L137.784 49.0001H137.064L138.592 47.0721L137.24 45.1601H137.952L139.12 46.8001H139.704V45.1601H140.344V46.8001H140.928L142.096 45.1601H142.808L141.456 47.0721L142.984 49.0001Z" fill="black"/>
<path d="M144.175 49.0001H143.631V45.1601H144.271V47.9681L146.623 45.1601H147.167V49.0001H146.527V46.1921L144.175 49.0001Z" fill="black"/>
<path d="M148.926 45.8001C149.358 45.3094 149.876 45.0641 150.478 45.0641C151.028 45.0641 151.484 45.2561 151.846 45.6401C152.214 46.0241 152.398 46.5041 152.398 47.0801C152.398 47.6561 152.214 48.1361 151.846 48.5201C151.484 48.9041 151.028 49.0961 150.478 49.0961C149.87 49.0961 149.374 48.8721 148.99 48.4241V50.7601H148.35V45.1601H148.926V45.8001ZM151.366 48.1121C151.628 47.8507 151.758 47.5067 151.758 47.0801C151.758 46.6534 151.628 46.3094 151.366 46.0481C151.11 45.7867 150.79 45.6561 150.406 45.6561C150.081 45.6561 149.793 45.7467 149.542 45.9281C149.292 46.1094 149.108 46.3334 148.99 46.6001V47.5601C149.108 47.8267 149.292 48.0507 149.542 48.2321C149.793 48.4134 150.081 48.5041 150.406 48.5041C150.79 48.5041 151.11 48.3734 151.366 48.1121Z" fill="black"/>
<path d="M82.5844 57.3201H77.5124V56.7121H82.5844V57.3201Z" fill="black"/>
<path d="M86.8704 53.4001H90.3184V59.0001H89.6464V54.0401H87.5104C87.377 55.5761 87.241 56.6427 87.1024 57.2401C86.841 58.3441 86.4144 58.9521 85.8224 59.0641C85.7584 59.0747 85.689 59.0801 85.6144 59.0801C85.4437 59.0801 85.2784 59.0507 85.1184 58.9921V58.3521C85.225 58.3894 85.353 58.4081 85.5024 58.4081C85.689 58.4081 85.8544 58.3174 85.9984 58.1361C86.1424 57.9547 86.257 57.7201 86.3424 57.4321C86.433 57.1387 86.5104 56.7814 86.5744 56.3601C86.6437 55.9334 86.697 55.5041 86.7344 55.0721C86.777 54.6401 86.817 54.1654 86.8544 53.6481C86.8544 53.6107 86.8544 53.5841 86.8544 53.5681C86.8597 53.5467 86.8624 53.5201 86.8624 53.4881C86.8677 53.4561 86.8704 53.4267 86.8704 53.4001Z" fill="black"/>
<path d="M92.1911 59.0001H91.6471V55.1601H92.2871V57.9681L94.6391 55.1601H95.1831V59.0001H94.5431V56.1921L92.1911 59.0001Z" fill="black"/>
<path d="M99.3659 59.0001H98.7259V57.6641C98.3792 57.7974 97.9979 57.8641 97.5819 57.8641C97.1232 57.8641 96.7605 57.7494 96.4939 57.5201C96.2325 57.2907 96.1019 56.9467 96.1019 56.4881V55.1601H96.7419V56.4401C96.7419 56.7494 96.8272 56.9654 96.9979 57.0881C97.1739 57.2107 97.4325 57.2721 97.7739 57.2721C98.1312 57.2721 98.4485 57.2161 98.7259 57.1041V55.1601H99.3659V59.0001Z" fill="black"/>
<path d="M101.097 59.0001H100.553V55.1601H101.193V57.9681L103.545 55.1601H104.089V59.0001H103.449V56.1921L101.097 59.0001Z" fill="black"/>
<path d="M170.584 27.3201H165.512V26.7121H170.584V27.3201Z" fill="black"/>
<path d="M176.878 29.2961H176.206V28.5681C175.321 28.5414 174.617 28.3227 174.094 27.9121C173.577 27.5014 173.318 26.9307 173.318 26.2001C173.318 25.4694 173.577 24.8987 174.094 24.4881C174.617 24.0774 175.321 23.8587 176.206 23.8321V23.1041H176.878V23.8321C177.764 23.8587 178.465 24.0774 178.982 24.4881C179.505 24.8987 179.766 25.4694 179.766 26.2001C179.766 26.9307 179.505 27.5014 178.982 27.9121C178.465 28.3227 177.764 28.5414 176.878 28.5681V29.2961ZM174.558 24.9441C174.185 25.2481 173.998 25.6667 173.998 26.2001C173.998 26.7334 174.185 27.1547 174.558 27.4641C174.932 27.7681 175.481 27.9334 176.206 27.9601V24.4401C175.481 24.4667 174.932 24.6347 174.558 24.9441ZM176.878 24.4401V27.9601C177.604 27.9334 178.153 27.7681 178.526 27.4641C178.9 27.1547 179.086 26.7334 179.086 26.2001C179.086 25.6667 178.9 25.2481 178.526 24.9441C178.153 24.6347 177.604 24.4667 176.878 24.4401Z" fill="black"/>
<path d="M181.168 25.8001C181.6 25.3094 182.118 25.0641 182.72 25.0641C183.27 25.0641 183.726 25.2561 184.088 25.6401C184.456 26.0241 184.64 26.5041 184.64 27.0801C184.64 27.6561 184.456 28.1361 184.088 28.5201C183.726 28.9041 183.27 29.0961 182.72 29.0961C182.112 29.0961 181.616 28.8721 181.232 28.4241V30.7601H180.592V25.1601H181.168V25.8001ZM183.608 28.1121C183.87 27.8507 184 27.5067 184 27.0801C184 26.6534 183.87 26.3094 183.608 26.0481C183.352 25.7867 183.032 25.6561 182.648 25.6561C182.323 25.6561 182.035 25.7467 181.784 25.9281C181.534 26.1094 181.35 26.3334 181.232 26.6001V27.5601C181.35 27.8267 181.534 28.0507 181.784 28.2321C182.035 28.4134 182.323 28.5041 182.648 28.5041C183.032 28.5041 183.352 28.3734 183.608 28.1121Z" fill="black"/>
<path d="M185.297 27.0801C185.297 26.4507 185.489 25.9574 185.873 25.6001C186.263 25.2427 186.708 25.0641 187.209 25.0641C187.679 25.0641 188.065 25.1814 188.369 25.4161C188.679 25.6507 188.881 25.9414 188.977 26.2881C189.073 26.6294 189.079 26.9867 188.993 27.3601H185.937C185.975 27.7387 186.143 28.0241 186.441 28.2161C186.74 28.4081 187.1 28.5041 187.521 28.5041C187.991 28.5041 188.412 28.4001 188.785 28.1921V28.8161C188.428 29.0027 187.975 29.0961 187.425 29.0961C186.817 29.0961 186.311 28.9227 185.905 28.5761C185.5 28.2294 185.297 27.7307 185.297 27.0801ZM188.425 26.8001C188.441 26.6881 188.433 26.5707 188.401 26.4481C188.369 26.3254 188.311 26.2027 188.225 26.0801C188.145 25.9574 188.02 25.8561 187.849 25.7761C187.679 25.6961 187.479 25.6561 187.249 25.6561C186.903 25.6561 186.601 25.7574 186.345 25.9601C186.095 26.1627 185.959 26.4427 185.937 26.8001H188.425Z" fill="black"/>
<path d="M192.8 27.9681C192.8 28.3254 192.646 28.6027 192.336 28.8001C192.032 28.9974 191.611 29.0961 191.072 29.0961C190.534 29.0961 190.062 28.9974 189.656 28.8001V28.1921C190.046 28.4001 190.491 28.5041 190.992 28.5041C191.771 28.5041 192.16 28.3014 192.16 27.8961C192.16 27.5281 191.878 27.3441 191.312 27.3441H190.472V26.7521H191.312C191.824 26.7521 192.08 26.5867 192.08 26.2561C192.08 26.0534 191.984 25.9014 191.792 25.8001C191.6 25.6987 191.344 25.6481 191.024 25.6481C190.56 25.6481 190.126 25.7494 189.72 25.9521V25.3521C190.152 25.1547 190.611 25.0561 191.096 25.0561C191.619 25.0561 192.019 25.1574 192.296 25.3601C192.579 25.5574 192.72 25.8267 192.72 26.1681C192.72 26.3974 192.656 26.5867 192.528 26.7361C192.4 26.8854 192.227 26.9841 192.008 27.0321C192.238 27.0907 192.427 27.2027 192.576 27.3681C192.726 27.5334 192.8 27.7334 192.8 27.9681Z" fill="black"/>
<path d="M194.285 29.0001H193.741V25.1601H194.381V27.9681L196.733 25.1601H197.277V29.0001H196.637V26.1921L194.285 29.0001Z" fill="black"/>
<path d="M198.844 29.0001H198.092L199.204 27.5921C198.91 27.5067 198.684 27.3574 198.524 27.1441C198.364 26.9307 198.284 26.6854 198.284 26.4081C198.284 26.0561 198.412 25.7601 198.668 25.5201C198.924 25.2801 199.276 25.1601 199.724 25.1601H201.612V29.0001H200.972V27.6561H199.892L198.844 29.0001ZM199.148 25.9121C198.998 26.0294 198.924 26.1947 198.924 26.4081C198.924 26.6214 198.998 26.7867 199.148 26.9041C199.302 27.0214 199.513 27.0801 199.78 27.0801H200.972V25.7361H199.78C199.513 25.7361 199.302 25.7947 199.148 25.9121Z" fill="black"/>
<path d="M170.584 37.3201H165.512V36.7121H170.584V37.3201Z" fill="black"/>
<path d="M174.494 39.0001H173.822V33.4001H174.494V35.8241H175.766L177.454 33.4001H178.222L176.318 36.1281L178.39 39.0001H177.622L175.79 36.4641H174.494V39.0001Z" fill="black"/>
<path d="M179.077 38.5601C178.672 38.1974 178.469 37.7041 178.469 37.0801C178.469 36.4561 178.672 35.9654 179.077 35.6081C179.482 35.2454 179.962 35.0641 180.517 35.0641C181.077 35.0641 181.557 35.2454 181.957 35.6081C182.362 35.9654 182.565 36.4561 182.565 37.0801C182.565 37.7041 182.362 38.1974 181.957 38.5601C181.557 38.9174 181.077 39.0961 180.517 39.0961C179.962 39.0961 179.482 38.9174 179.077 38.5601ZM181.525 38.1121C181.792 37.8561 181.925 37.5121 181.925 37.0801C181.925 36.6481 181.792 36.3067 181.525 36.0561C181.258 35.8001 180.922 35.6721 180.517 35.6721C180.112 35.6721 179.776 35.8001 179.509 36.0561C179.242 36.3067 179.109 36.6481 179.109 37.0801C179.109 37.5121 179.242 37.8561 179.509 38.1121C179.776 38.3627 180.112 38.4881 180.517 38.4881C180.922 38.4881 181.258 38.3627 181.525 38.1121Z" fill="black"/>
<path d="M184.059 35.8001C184.491 35.3094 185.008 35.0641 185.611 35.0641C186.16 35.0641 186.616 35.2561 186.979 35.6401C187.347 36.0241 187.531 36.5041 187.531 37.0801C187.531 37.6561 187.347 38.1361 186.979 38.5201C186.616 38.9041 186.16 39.0961 185.611 39.0961C185.003 39.0961 184.507 38.8721 184.123 38.4241V40.7601H183.483V35.1601H184.059V35.8001ZM186.499 38.1121C186.76 37.8507 186.891 37.5067 186.891 37.0801C186.891 36.6534 186.76 36.3094 186.499 36.0481C186.243 35.7867 185.923 35.6561 185.539 35.6561C185.214 35.6561 184.926 35.7467 184.675 35.9281C184.424 36.1094 184.24 36.3334 184.123 36.6001V37.5601C184.24 37.8267 184.424 38.0507 184.675 38.2321C184.926 38.4134 185.214 38.5041 185.539 38.5041C185.923 38.5041 186.243 38.3734 186.499 38.1121Z" fill="black"/>
<path d="M191.572 38.2001C191.572 38.3974 191.67 38.4961 191.868 38.4961C191.953 38.4961 192.052 38.4774 192.164 38.4401V38.9601C192.004 39.0187 191.844 39.0481 191.684 39.0481C191.316 39.0481 191.081 38.8934 190.98 38.5841C190.569 38.9254 190.07 39.0961 189.484 39.0961C189.11 39.0961 188.79 38.9974 188.524 38.8001C188.262 38.5974 188.132 38.3067 188.132 37.9281C188.132 37.4747 188.3 37.1467 188.636 36.9441C188.977 36.7361 189.388 36.6321 189.868 36.6321C190.22 36.6321 190.574 36.6721 190.932 36.7521V36.6161C190.932 36.3227 190.836 36.0907 190.644 35.9201C190.452 35.7441 190.182 35.6561 189.836 35.6561C189.35 35.6561 188.884 35.7521 188.436 35.9441V35.3201C188.937 35.1494 189.425 35.0641 189.9 35.0641C190.422 35.0641 190.83 35.2054 191.124 35.4881C191.422 35.7654 191.572 36.1681 191.572 36.6961V38.2001ZM188.788 37.8961C188.788 38.1094 188.868 38.2721 189.028 38.3841C189.193 38.4907 189.39 38.5441 189.62 38.5441C190.148 38.5441 190.585 38.3574 190.932 37.9841V37.2801C190.569 37.2054 190.244 37.1681 189.956 37.1681C189.63 37.1681 189.353 37.2267 189.124 37.3441C188.9 37.4561 188.788 37.6401 188.788 37.8961Z" fill="black"/>
<path d="M195.042 40.3201H194.402V38.3601H195.082C195.69 37.2614 195.994 35.6081 195.994 33.4001H199.434V38.3601H200.138V40.3201H199.498V39.0001H195.042V40.3201ZM196.682 34.0401C196.565 36.0347 196.282 37.4747 195.834 38.3601H198.762V34.0401H196.682Z" fill="black"/>
<path d="M202.38 38.2721L203.676 35.1601H204.356L202.468 39.5761C202.1 40.4294 201.618 40.8561 201.02 40.8561C200.876 40.8561 200.738 40.8374 200.604 40.8001V40.2481C200.716 40.2801 200.828 40.2961 200.94 40.2961C201.351 40.2961 201.682 39.9841 201.932 39.3601L202.076 39.0081L200.252 35.1601H200.932L202.38 38.2721Z" fill="black"/>
<path d="M208.821 37.1921C208.821 37.7841 208.64 38.2507 208.277 38.5921C207.92 38.9281 207.448 39.0961 206.861 39.0961C206.264 39.0961 205.781 38.8987 205.413 38.5041C205.05 38.1094 204.869 37.5574 204.869 36.8481C204.869 36.2294 204.976 35.6961 205.189 35.2481C205.402 34.8001 205.69 34.4641 206.053 34.2401C206.298 34.0907 206.552 33.9734 206.813 33.8881C207.08 33.7974 207.298 33.7414 207.469 33.7201C207.645 33.6987 207.826 33.6561 208.013 33.5921C208.2 33.5227 208.354 33.4267 208.477 33.3041V33.9761C208.328 34.0827 208.144 34.1627 207.925 34.2161C207.706 34.2641 207.464 34.3227 207.197 34.3921C206.93 34.4614 206.674 34.5681 206.429 34.7121C206.189 34.8561 206.002 35.0374 205.869 35.2561C205.736 35.4747 205.618 35.7361 205.517 36.0401C205.656 35.8267 205.853 35.6534 206.109 35.5201C206.365 35.3867 206.64 35.3201 206.933 35.3201C207.45 35.3201 207.893 35.4934 208.261 35.8401C208.634 36.1867 208.821 36.6374 208.821 37.1921ZM205.509 37.2081C205.509 37.5761 205.632 37.8827 205.877 38.1281C206.122 38.3681 206.445 38.4881 206.845 38.4881C207.256 38.4881 207.581 38.3681 207.821 38.1281C208.061 37.8881 208.181 37.5814 208.181 37.2081C208.181 36.8347 208.061 36.5281 207.821 36.2881C207.581 36.0481 207.256 35.9281 206.845 35.9281C206.461 35.9281 206.141 36.0587 205.885 36.3201C205.634 36.5761 205.509 36.8721 205.509 37.2081Z" fill="black"/>
<path d="M212.869 38.2001C212.869 38.3974 212.967 38.4961 213.165 38.4961C213.25 38.4961 213.349 38.4774 213.461 38.4401V38.9601C213.301 39.0187 213.141 39.0481 212.981 39.0481C212.613 39.0481 212.378 38.8934 212.277 38.5841C211.866 38.9254 211.367 39.0961 210.781 39.0961C210.407 39.0961 210.087 38.9974 209.821 38.8001C209.559 38.5974 209.429 38.3067 209.429 37.9281C209.429 37.4747 209.597 37.1467 209.933 36.9441C210.274 36.7361 210.685 36.6321 211.165 36.6321C211.517 36.6321 211.871 36.6721 212.229 36.7521V36.6161C212.229 36.3227 212.133 36.0907 211.941 35.9201C211.749 35.7441 211.479 35.6561 211.133 35.6561C210.647 35.6561 210.181 35.7521 209.733 35.9441V35.3201C210.234 35.1494 210.722 35.0641 211.197 35.0641C211.719 35.0641 212.127 35.2054 212.421 35.4881C212.719 35.7654 212.869 36.1681 212.869 36.6961V38.2001ZM210.085 37.8961C210.085 38.1094 210.165 38.2721 210.325 38.3841C210.49 38.4907 210.687 38.5441 210.917 38.5441C211.445 38.5441 211.882 38.3574 212.229 37.9841V37.2801C211.866 37.2054 211.541 37.1681 211.253 37.1681C210.927 37.1681 210.65 37.2267 210.421 37.3441C210.197 37.4561 210.085 37.6401 210.085 37.8961Z" fill="black"/>
<path d="M170.584 47.3201H165.512V46.7121H170.584V47.3201Z" fill="black"/>
<path d="M174.494 45.6641H175.982C177.417 45.6641 178.134 46.2214 178.134 47.3361C178.134 48.4454 177.417 49.0001 175.982 49.0001H173.822V43.4001H177.702V44.0401H174.494V45.6641ZM174.494 48.3601H176.014C176.174 48.3601 176.316 48.3547 176.438 48.3441C176.561 48.3281 176.689 48.3014 176.822 48.2641C176.961 48.2214 177.073 48.1654 177.158 48.0961C177.244 48.0214 177.313 47.9201 177.366 47.7921C177.425 47.6641 177.454 47.5121 177.454 47.3361C177.454 47.1174 177.414 46.9361 177.334 46.7921C177.254 46.6427 177.14 46.5361 176.99 46.4721C176.841 46.4081 176.692 46.3654 176.542 46.3441C176.393 46.3174 176.217 46.3041 176.014 46.3041H174.494V48.3601Z" fill="black"/>
<path d="M178.742 47.0801C178.742 46.4507 178.934 45.9574 179.318 45.6001C179.708 45.2427 180.153 45.0641 180.654 45.0641C181.124 45.0641 181.51 45.1814 181.814 45.4161C182.124 45.6507 182.326 45.9414 182.422 46.2881C182.518 46.6294 182.524 46.9867 182.438 47.3601H179.382C179.42 47.7387 179.588 48.0241 179.886 48.2161C180.185 48.4081 180.545 48.5041 180.966 48.5041C181.436 48.5041 181.857 48.4001 182.23 48.1921V48.8161C181.873 49.0027 181.42 49.0961 180.87 49.0961C180.262 49.0961 179.756 48.9227 179.35 48.5761C178.945 48.2294 178.742 47.7307 178.742 47.0801ZM181.87 46.8001C181.886 46.6881 181.878 46.5707 181.846 46.4481C181.814 46.3254 181.756 46.2027 181.67 46.0801C181.59 45.9574 181.465 45.8561 181.294 45.7761C181.124 45.6961 180.924 45.6561 180.694 45.6561C180.348 45.6561 180.046 45.7574 179.79 45.9601C179.54 46.1627 179.404 46.4427 179.382 46.8001H181.87Z" fill="black"/>
<path d="M184.734 45.7521C184.707 46.1734 184.675 46.5414 184.638 46.8561C184.6 47.1707 184.547 47.4747 184.478 47.7681C184.408 48.0561 184.323 48.2907 184.222 48.4721C184.126 48.6534 184.003 48.7974 183.854 48.9041C183.704 49.0107 183.534 49.0641 183.342 49.0641C183.187 49.0641 183.032 49.0347 182.878 48.9761V48.4721C182.963 48.5041 183.048 48.5201 183.134 48.5201C183.454 48.5201 183.686 48.2401 183.83 47.6801C183.979 47.1147 184.072 46.2747 184.11 45.1601H186.934V49.0001H186.294V45.7521H184.734Z" fill="black"/>
<path d="M189.94 49.0001H188.116V45.1601H188.756V46.5041H189.94C190.399 46.5041 190.761 46.6214 191.028 46.8561C191.295 47.0907 191.428 47.3894 191.428 47.7521C191.428 48.1147 191.295 48.4134 191.028 48.6481C190.761 48.8827 190.399 49.0001 189.94 49.0001ZM188.756 47.0801V48.4241H189.86C190.148 48.4241 190.372 48.3681 190.532 48.2561C190.697 48.1441 190.78 47.9761 190.78 47.7521C190.78 47.5281 190.697 47.3601 190.532 47.2481C190.372 47.1361 190.148 47.0801 189.86 47.0801H188.756ZM192.812 49.0001H192.172V45.1601H192.812V49.0001Z" fill="black"/>
<path d="M196.887 44.2321C196.572 44.4561 196.199 44.5681 195.767 44.5681C195.335 44.5681 194.961 44.4561 194.647 44.2321V43.6561C195.004 43.8907 195.377 44.0081 195.767 44.0081C196.156 44.0081 196.529 43.8907 196.887 43.6561V44.2321ZM194.543 49.0001H193.999V45.1601H194.639V47.9681L196.991 45.1601H197.535V49.0001H196.895V46.1921L194.543 49.0001Z" fill="black"/>
<path d="M201.526 49.0001H200.854V43.4001H201.526V45.8241H202.798L204.486 43.4001H205.254L203.35 46.1281L205.422 49.0001H204.654L202.822 46.4641H201.526V49.0001Z" fill="black"/>
<path d="M205.5 47.0801C205.5 46.4507 205.692 45.9574 206.076 45.6001C206.466 45.2427 206.911 45.0641 207.412 45.0641C207.882 45.0641 208.268 45.1814 208.572 45.4161C208.882 45.6507 209.084 45.9414 209.18 46.2881C209.276 46.6294 209.282 46.9867 209.196 47.3601H206.14C206.178 47.7387 206.346 48.0241 206.644 48.2161C206.943 48.4081 207.303 48.5041 207.724 48.5041C208.194 48.5041 208.615 48.4001 208.988 48.1921V48.8161C208.631 49.0027 208.178 49.0961 207.628 49.0961C207.02 49.0961 206.514 48.9227 206.108 48.5761C205.703 48.2294 205.5 47.7307 205.5 47.0801ZM208.628 46.8001C208.644 46.6881 208.636 46.5707 208.604 46.4481C208.572 46.3254 208.514 46.2027 208.428 46.0801C208.348 45.9574 208.223 45.8561 208.052 45.7761C207.882 45.6961 207.682 45.6561 207.452 45.6561C207.106 45.6561 206.804 45.7574 206.548 45.9601C206.298 46.1627 206.162 46.4427 206.14 46.8001H208.628Z" fill="black"/>
<path d="M210.309 50.0401H209.685V48.4241H210.197C210.65 47.6241 210.869 46.5361 210.853 45.1601H213.717V48.4241H214.277V50.0401H213.653V49.0001H210.309V50.0401ZM211.469 45.7361C211.442 46.7867 211.25 47.6827 210.893 48.4241H213.077V45.7361H211.469Z" fill="black"/>
<path d="M215.707 45.8001C216.139 45.3094 216.657 45.0641 217.259 45.0641C217.809 45.0641 218.265 45.2561 218.627 45.6401C218.995 46.0241 219.179 46.5041 219.179 47.0801C219.179 47.6561 218.995 48.1361 218.627 48.5201C218.265 48.9041 217.809 49.0961 217.259 49.0961C216.651 49.0961 216.155 48.8721 215.771 48.4241V50.7601H215.131V45.1601H215.707V45.8001ZM218.147 48.1121C218.409 47.8507 218.539 47.5067 218.539 47.0801C218.539 46.6534 218.409 46.3094 218.147 46.0481C217.891 45.7867 217.571 45.6561 217.188 45.6561C216.862 45.6561 216.574 45.7467 216.323 45.9281C216.073 46.1094 215.889 46.3334 215.771 46.6001V47.5601C215.889 47.8267 216.073 48.0507 216.323 48.2321C216.574 48.4134 216.862 48.5041 217.188 48.5041C217.571 48.5041 217.891 48.3734 218.147 48.1121Z" fill="black"/>
<path d="M45.7401 77.6944C45.7401 79.327 44.3221 80.6505 42.5729 80.6505C40.8237 80.6505 39.4057 79.327 39.4057 77.6944C39.4057 76.0618 40.8237 74.7383 42.5729 74.7383C44.3221 74.7383 45.7401 76.0618 45.7401 77.6944Z" fill="black"/>
<path d="M41.9378 81.9265C42.0742 81.9603 42.2149 81.9925 42.3601 82.0232L41.9378 81.9265Z" fill="black"/>
<path d="M58.3851 24.9149C58.3851 26.0374 57.4101 26.9474 56.2074 26.9474C55.0047 26.9474 54.0297 26.0374 54.0297 24.9149C54.0297 23.7924 55.0047 22.8824 56.2074 22.8824C57.4101 22.8824 58.3851 23.7924 58.3851 24.9149Z" fill="black"/>
<path d="M55.7706 27.8249C55.8645 27.8482 55.9612 27.8703 56.061 27.8914L55.7706 27.8249Z" fill="black"/>
<path d="M32.1679 40.5637C32.1679 41.5855 31.2804 42.4138 30.1856 42.4138C29.0908 42.4138 28.2033 41.5855 28.2033 40.5637C28.2033 39.5419 29.0908 38.7135 30.1856 38.7135C31.2804 38.7135 32.1679 39.5419 32.1679 40.5637Z" fill="black"/>
<path d="M29.788 43.2126C29.8734 43.2338 29.9615 43.254 30.0523 43.2731L29.788 43.2126Z" fill="black"/>
<path d="M1.25643 17.7441C1.02176 17.7441 0.82443 17.6641 0.66443 17.5041C0.515096 17.3547 0.44043 17.1627 0.44043 16.9281V9.63205C0.451096 8.78939 0.64843 8.03205 1.03243 7.36005C1.41643 6.68805 1.9391 6.16005 2.60043 5.77605C3.26176 5.38139 4.00843 5.18405 4.84043 5.18405C5.6831 5.18405 6.4351 5.38139 7.09643 5.77605C7.75776 6.16005 8.28043 6.68805 8.66443 7.36005C9.0591 8.03205 9.25643 8.78939 9.25643 9.63205C9.25643 10.4747 9.0751 11.2321 8.71243 11.9041C8.36043 12.5654 7.8751 13.0934 7.25643 13.4881C6.63776 13.8721 5.9391 14.0641 5.16043 14.0641C4.5311 14.0641 3.94976 13.9361 3.41643 13.6801C2.89376 13.4134 2.44576 13.0561 2.07243 12.6081V16.9281C2.07243 17.1627 1.99776 17.3547 1.84843 17.5041C1.6991 17.6641 1.50176 17.7441 1.25643 17.7441ZM4.84043 12.6241C5.38443 12.6241 5.86976 12.4961 6.29643 12.2401C6.7231 11.9734 7.0591 11.6161 7.30443 11.1681C7.56043 10.7094 7.68843 10.1974 7.68843 9.63205C7.68843 9.05605 7.56043 8.54405 7.30443 8.09605C7.0591 7.63739 6.7231 7.28005 6.29643 7.02405C5.86976 6.75739 5.38443 6.62405 4.84043 6.62405C4.3071 6.62405 3.82176 6.75739 3.38443 7.02405C2.95776 7.28005 2.62176 7.63739 2.37643 8.09605C2.1311 8.54405 2.00843 9.05605 2.00843 9.63205C2.00843 10.1974 2.1311 10.7094 2.37643 11.1681C2.62176 11.6161 2.95776 11.9734 3.38443 12.2401C3.82176 12.4961 4.3071 12.6241 4.84043 12.6241Z" fill="black"/>
<path d="M15.3384 14.0641C14.5598 14.0641 13.8611 13.8721 13.2424 13.4881C12.6238 13.0934 12.1331 12.5654 11.7704 11.9041C11.4184 11.2321 11.2424 10.4747 11.2424 9.63205C11.2424 8.78939 11.4344 8.03205 11.8184 7.36005C12.2131 6.68805 12.7411 6.16005 13.4024 5.77605C14.0744 5.38139 14.8264 5.18405 15.6584 5.18405C16.4904 5.18405 17.2371 5.38139 17.8984 5.77605C18.5598 6.16005 19.0824 6.68805 19.4664 7.36005C19.8611 8.03205 20.0584 8.78939 20.0584 9.63205H19.4344C19.4344 10.4747 19.2531 11.2321 18.8904 11.9041C18.5384 12.5654 18.0531 13.0934 17.4344 13.4881C16.8158 13.8721 16.1171 14.0641 15.3384 14.0641ZM15.6584 12.6241C16.2024 12.6241 16.6878 12.4961 17.1144 12.2401C17.5411 11.9734 17.8771 11.6161 18.1224 11.1681C18.3678 10.7094 18.4904 10.1974 18.4904 9.63205C18.4904 9.05605 18.3678 8.54405 18.1224 8.09605C17.8771 7.63739 17.5411 7.28005 17.1144 7.02405C16.6878 6.75739 16.2024 6.62405 15.6584 6.62405C15.1251 6.62405 14.6398 6.75739 14.2024 7.02405C13.7758 7.28005 13.4344 7.63739 13.1784 8.09605C12.9331 8.54405 12.8104 9.05605 12.8104 9.63205C12.8104 10.1974 12.9331 10.7094 13.1784 11.1681C13.4344 11.6161 13.7758 11.9734 14.2024 12.2401C14.6398 12.4961 15.1251 12.6241 15.6584 12.6241ZM19.2424 14.0161C19.0078 14.0161 18.8104 13.9414 18.6504 13.7921C18.5011 13.6321 18.4264 13.4347 18.4264 13.2001V10.7521L18.7304 9.05605L20.0584 9.63205V13.2001C20.0584 13.4347 19.9784 13.6321 19.8184 13.7921C19.6691 13.9414 19.4771 14.0161 19.2424 14.0161Z" fill="black"/>
<path d="M25.6713 14.0001C25.138 14.0001 24.658 13.8667 24.2313 13.6001C23.8046 13.3227 23.4686 12.9494 23.2233 12.4801C22.978 12.0107 22.8553 11.4827 22.8553 10.8961V3.26405C22.8553 3.02939 22.93 2.83739 23.0793 2.68805C23.2286 2.53872 23.4206 2.46405 23.6553 2.46405C23.89 2.46405 24.082 2.53872 24.2313 2.68805C24.3806 2.83739 24.4553 3.02939 24.4553 3.26405V10.8961C24.4553 11.3227 24.5726 11.6801 24.8073 11.9681C25.042 12.2561 25.33 12.4001 25.6713 12.4001H26.2153C26.4073 12.4001 26.5673 12.4747 26.6953 12.6241C26.834 12.7734 26.9033 12.9654 26.9033 13.2001C26.9033 13.4347 26.8126 13.6267 26.6313 13.7761C26.4606 13.9254 26.2366 14.0001 25.9593 14.0001H25.6713ZM22.1193 6.94405C21.8953 6.94405 21.714 6.88005 21.5753 6.75205C21.4366 6.62405 21.3673 6.46405 21.3673 6.27205C21.3673 6.05872 21.4366 5.88805 21.5753 5.76005C21.714 5.63205 21.8953 5.56805 22.1193 5.56805H25.8153C26.0393 5.56805 26.2206 5.63205 26.3593 5.76005C26.498 5.88805 26.5673 6.05872 26.5673 6.27205C26.5673 6.46405 26.498 6.62405 26.3593 6.75205C26.2206 6.88005 26.0393 6.94405 25.8153 6.94405H22.1193Z" fill="black"/>
<path d="M29.8852 14.0001C29.6505 14.0001 29.4532 13.9254 29.2932 13.7761C29.1438 13.6161 29.0692 13.4187 29.0692 13.1841V6.06405C29.0692 5.81872 29.1438 5.62139 29.2932 5.47205C29.4532 5.32272 29.6505 5.24805 29.8852 5.24805C30.1305 5.24805 30.3278 5.32272 30.4772 5.47205C30.6265 5.62139 30.7012 5.81872 30.7012 6.06405V13.1841C30.7012 13.4187 30.6265 13.6161 30.4772 13.7761C30.3278 13.9254 30.1305 14.0001 29.8852 14.0001ZM29.8852 3.82405C29.5972 3.82405 29.3465 3.72272 29.1332 3.52005C28.9305 3.30672 28.8292 3.05605 28.8292 2.76805C28.8292 2.48005 28.9305 2.23472 29.1332 2.03205C29.3465 1.81872 29.5972 1.71205 29.8852 1.71205C30.1732 1.71205 30.4185 1.81872 30.6212 2.03205C30.8345 2.23472 30.9412 2.48005 30.9412 2.76805C30.9412 3.05605 30.8345 3.30672 30.6212 3.52005C30.4185 3.72272 30.1732 3.82405 29.8852 3.82405Z" fill="black"/>
</svg>
